<svg width="111" height="23" viewBox="0 0 111 23" fill="none" xmlns="http://www.w3.org/2000/svg">
<g clip-path="url(#clip0_202_2877)">
<path d="M12.4862 5.59991H0.251953V18.8856H3.65713V14.5633H10.182L13.159 18.8856H16.972L13.6891 14.5434C14.7087 14.3841 15.4427 14.0056 15.8913 13.408C16.3398 12.8105 16.5642 11.8544 16.5642 10.5796V9.58368C16.5642 8.82673 16.4827 8.2292 16.3398 7.77102C16.1971 7.31291 15.9525 6.91454 15.6058 6.55601C15.2388 6.21739 14.831 5.97837 14.3416 5.81901C13.8523 5.67958 13.2405 5.59991 12.4862 5.59991ZM11.9356 11.6353H3.65713V8.52793H11.9356C12.4046 8.52793 12.7308 8.60762 12.8939 8.74704C13.057 8.88646 13.159 9.14543 13.159 9.52389V10.6394C13.159 11.0378 13.057 11.2967 12.8939 11.4361C12.7308 11.5755 12.4046 11.6353 11.9356 11.6353Z" fill="#FBFBFB"/>
<path d="M22.039 14.9616V5.59985H18.7324V14.882C18.7324 15.6388 18.7918 16.2563 18.9304 16.7144C19.069 17.1925 19.3066 17.5908 19.663 17.9295C19.9996 18.2881 20.3956 18.527 20.8708 18.6664C21.346 18.8259 21.94 18.8856 22.6924 18.8856H30.6124C31.345 18.8856 31.939 18.8259 32.4142 18.6664C32.8894 18.527 33.2854 18.2881 33.6418 17.9295C33.9784 17.5908 34.216 17.1925 34.3546 16.7144C34.4933 16.2563 34.5724 15.6388 34.5724 14.882V5.59985H31.2658V14.9616C31.2658 15.36 31.1668 15.619 31.0084 15.7584C30.85 15.8978 30.5332 15.9575 30.0778 15.9575H23.227C22.7518 15.9575 22.435 15.8978 22.2766 15.7584C22.1182 15.619 22.039 15.36 22.039 14.9616Z" fill="#FBFBFB"/>
<path d="M45.8789 18.8856V8.52793H52.172V5.59991H36.332V8.52793H42.6251V18.8856H45.8789Z" fill="#FBFBFB"/>
<path d="M57.2382 14.9616V5.59985H53.9316V14.882C53.9316 15.6388 53.9911 16.2563 54.1296 16.7144C54.2682 17.1925 54.5058 17.5908 54.8622 17.9295C55.1988 18.2881 55.5948 18.527 56.07 18.6664C56.5452 18.8259 57.1392 18.8856 57.8916 18.8856H65.8116C66.5442 18.8856 67.1382 18.8259 67.6134 18.6664C68.0886 18.527 68.4846 18.2881 68.841 17.9295C69.1776 17.5908 69.4152 17.1925 69.5538 16.7144C69.6924 16.2563 69.7716 15.6388 69.7716 14.882V5.59985H66.465V14.9616C66.465 15.36 66.366 15.619 66.2076 15.7584C66.0491 15.8978 65.7324 15.9575 65.277 15.9575H58.4262C57.951 15.9575 57.6342 15.8978 57.4758 15.7584C57.3174 15.619 57.2382 15.36 57.2382 14.9616Z" fill="#FBFBFB"/>
<path d="M86.7191 9.46405V9.20515C86.7191 7.97018 86.402 7.05391 85.7671 6.47628C85.1328 5.89863 84.122 5.59985 82.7741 5.59985H71.5332V18.8856H83.4281C84.776 18.8856 85.7869 18.6067 86.4218 18.0291C87.0561 17.4514 87.3732 16.5351 87.3732 15.3003V15.0214C87.3732 13.7864 87.0561 12.91 86.4218 12.3921C86.3027 12.3124 86.1835 12.2526 86.065 12.1929C85.9458 12.1331 85.7671 12.0535 85.5493 11.9738C85.9855 11.7348 86.2828 11.4161 86.4609 11.0575C86.6198 10.699 86.7191 10.1612 86.7191 9.46405ZM74.8441 10.9181V8.52787H82.2384C82.7144 8.52787 83.0315 8.60756 83.1905 8.74698C83.3486 8.8864 83.4281 9.14537 83.4281 9.52383V9.92223C83.4281 10.3206 83.3486 10.5795 83.1905 10.7189C83.0315 10.8584 82.7144 10.9181 82.2384 10.9181H74.8441ZM74.8441 15.9575V13.5673H82.9124C83.3685 13.5673 83.6856 13.6469 83.8445 13.7864C84.0027 13.9258 84.1021 14.1848 84.1021 14.5632V14.9616C84.1021 15.36 84.0027 15.619 83.8445 15.7584C83.6856 15.8978 83.3685 15.9575 82.9124 15.9575H74.8441Z" fill="#FBFBFB"/>
<path d="M92.5094 8.52787H103.547V5.59985H89.1328V18.8856H104.093V15.9575H92.5094V13.7068H103.284L103.547 10.7787H92.5094V8.52787Z" fill="#FBFBFB"/>
</g>
<defs>
<clipPath id="clip0_202_2877">
<rect width="110" height="22.1429" fill="white" transform="translate(0.251953 0.285645)"/>
</clipPath>
</defs>
</svg>
